<svg xmlns="http://www.w3.org/2000/svg" viewBox="0 0 118 117.98"><defs><style>.cls-1{fill:#c03;}.cls-1,.cls-2,.cls-3{fill-rule:evenodd;}.cls-2{fill:#06c;}</style></defs><title>Kp-logo</title><g id="Ebene_2" data-name="Ebene 2"><g id="Ebene_1-2" data-name="Ebene 1"><path class="cls-1" d="M80.39,13.4,83.76,0S7.69,29,.3,84.1c-4.84,36,50.81,10.17,50.81,10.17l5-20S2,97.72,5.69,73.07c5-32.95,74.7-59.67,74.7-59.67"/><path class="cls-2" d="M37.61,104.58,34.25,118s76.06-29,83.45-84.1c4.84-36-50.82-10.16-50.82-10.16L61.93,43.66s54.11-23.4,50.39,1.25c-5,33-74.71,59.67-74.71,59.67"/><polyline class="cls-3" points="40.25 42.65 46.65 42.65 46.65 58.31 46.73 58.31 52.07 50.66 59.08 50.66 52.64 59.01 59.62 68.86 51.85 68.86 46.73 59.85 46.65 59.85 46.65 68.86 40.25 68.86 40.25 42.65"/><path class="cls-3" d="M62.59,50.89h5.82v3.32h.07c1.26-2.57,3.93-3.74,6.8-3.74,5,0,7.82,4.83,7.82,9.27,0,5.43-2.91,9.95-8.34,9.95a6.34,6.34,0,0,1-5.79-3H68.9v10H62.59Zm10.17,4.44c-2.32,0-3.86,2.05-3.86,4.8s1.76,4.7,3.86,4.7c2.38,0,3.82-2,3.82-4.94C76.58,57.45,75.21,55.33,72.76,55.33Z"/></g></g></svg>